<svg id="Icon_material-add-a-photo" data-name="Icon material-add-a-photo" xmlns="http://www.w3.org/2000/svg" width="45" height="41.087" viewBox="0 0 45 41.087">
  <path id="Icon_material-add-a-photo-2" data-name="Icon material-add-a-photo" d="M5.87,7.37V1.5H9.783V7.37h5.87v3.913H9.783v5.87H5.87v-5.87H0V7.37Zm5.87,11.739v-5.87h5.87V7.37H31.3l3.58,3.913h6.2A3.925,3.925,0,0,1,45,15.2V38.674a3.925,3.925,0,0,1-3.913,3.913H9.783A3.925,3.925,0,0,1,5.87,38.674V19.109Zm13.7,17.609a9.783,9.783,0,1,0-9.783-9.783A9.786,9.786,0,0,0,25.435,36.717Zm-6.261-9.783a6.261,6.261,0,1,0,6.261-6.261A6.254,6.254,0,0,0,19.174,26.935Z" transform="translate(0 -1.5)" fill="#00a388"/>
</svg>
