<svg id="ic_plus_button" xmlns="http://www.w3.org/2000/svg" width="45" height="45" viewBox="0 0 45 45">
  <path id="Icon_awesome-plus-circle" data-name="Icon awesome-plus-circle" d="M23.062.563a22.5,22.5,0,1,0,22.5,22.5A22.5,22.5,0,0,0,23.062.563ZM36.127,25.6a1.092,1.092,0,0,1-1.089,1.089H26.692v8.347A1.092,1.092,0,0,1,25.6,36.127H20.522a1.092,1.092,0,0,1-1.089-1.089V26.692H11.087A1.092,1.092,0,0,1,10,25.6V20.522a1.092,1.092,0,0,1,1.089-1.089h8.347V11.087A1.092,1.092,0,0,1,20.522,10H25.6a1.092,1.092,0,0,1,1.089,1.089v8.347h8.347a1.092,1.092,0,0,1,1.089,1.089Z" transform="translate(-0.563 -0.563)" fill="#00a388"/>
</svg>
