<svg id="ic_board_active" xmlns="http://www.w3.org/2000/svg" width="29.43" height="39.24" viewBox="0 0 29.43 39.24">
  <path id="Icon_awesome-clipboard-list" data-name="Icon awesome-clipboard-list" d="M25.751,4.9H19.62a4.9,4.9,0,0,0-9.81,0H3.679A3.68,3.68,0,0,0,0,8.584V35.561A3.68,3.68,0,0,0,3.679,39.24H25.751a3.68,3.68,0,0,0,3.679-3.679V8.584A3.68,3.68,0,0,0,25.751,4.9ZM7.357,32.5A1.839,1.839,0,1,1,9.2,30.656,1.835,1.835,0,0,1,7.357,32.5Zm0-7.357A1.839,1.839,0,1,1,9.2,23.3,1.835,1.835,0,0,1,7.357,25.138Zm0-7.357A1.839,1.839,0,1,1,9.2,15.941,1.835,1.835,0,0,1,7.357,17.781ZM14.715,3.066A1.839,1.839,0,1,1,12.876,4.9,1.835,1.835,0,0,1,14.715,3.066Zm9.81,28.2a.615.615,0,0,1-.613.613H12.876a.615.615,0,0,1-.613-.613V30.043a.615.615,0,0,1,.613-.613H23.912a.615.615,0,0,1,.613.613Zm0-7.357a.615.615,0,0,1-.613.613H12.876a.615.615,0,0,1-.613-.613V22.685a.615.615,0,0,1,.613-.613H23.912a.615.615,0,0,1,.613.613Zm0-7.357a.615.615,0,0,1-.613.613H12.876a.615.615,0,0,1-.613-.613V15.328a.615.615,0,0,1,.613-.613H23.912a.615.615,0,0,1,.613.613Z" fill="#fff"/>
</svg>
