<svg id="ic_review_inactive" xmlns="http://www.w3.org/2000/svg" width="43.553" height="38.706" viewBox="0 0 43.553 38.706">
  <g id="그룹_94" data-name="그룹 94" transform="translate(0 0)">
    <g id="Icon_awesome-edit" data-name="Icon awesome-edit">
      <path id="Icon_awesome-edit-2" data-name="Icon awesome-edit" d="M30.442,6.29l6.82,6.82a.739.739,0,0,1,0,1.043L20.748,30.668l-7.017.779a1.471,1.471,0,0,1-1.626-1.626l.779-7.017L29.4,6.29A.739.739,0,0,1,30.442,6.29ZM42.691,4.559,39,.869a2.957,2.957,0,0,0-4.174,0L32.15,3.546a.739.739,0,0,0,0,1.043l6.82,6.82a.739.739,0,0,0,1.043,0l2.677-2.677a2.957,2.957,0,0,0,0-4.174ZM30.245,26.1v8.981H3.629V8.468H22.406a8.3,8.3,0,0,0,1.617-1.29l1.216-1.172c.575-.575.809-1.168,0-1.168H3.629A3.63,3.63,0,0,0,0,8.468V35.084a3.63,3.63,0,0,0,3.629,3.629H30.245a3.63,3.63,0,0,0,3.629-3.629V23.152a.909.909,0,0,0-1.55-.643l-1.931,2.462C30.227,25.145,30.245,25.861,30.245,26.1Z" transform="translate(0 -0.007)" fill="#fff"/>
    </g>
    <path id="패스_72" data-name="패스 72" d="M15.319,0l4.439,4.393L5.273,18.962S.631,19.3,0,19.389l.709-5.066Z" transform="translate(14.382 9.521)" fill="rgba(0,163,136,0.75)"/>
  </g>
  <g id="그룹_95" data-name="그룹 95" transform="translate(37.205 1.711) rotate(45)">
    <path id="패스_73" data-name="패스 73" d="M1.767,0,4.643.019A1.8,1.8,0,0,1,5.962.475a2.142,2.142,0,0,1,.546,1.57c0,1,.271,1.814-.731,1.814l-4.969,0c-1,0-.788-.917-.788-1.919a1.891,1.891,0,0,1,.4-1.4A1.523,1.523,0,0,1,1.767,0Z" transform="translate(0 0)" fill="rgba(0,163,136,0.75)"/>
  </g>
</svg>
