<svg id="Icon_awesome-edit" data-name="Icon awesome-edit" xmlns="http://www.w3.org/2000/svg" width="44.153" height="39.24" viewBox="0 0 44.153 39.24">
  <path id="Icon_awesome-edit-2" data-name="Icon awesome-edit" d="M30.861,6.377l6.914,6.914a.75.75,0,0,1,0,1.058L21.034,31.091l-7.114.79a1.491,1.491,0,0,1-1.648-1.648l.79-7.114L29.8,6.377A.75.75,0,0,1,30.861,6.377ZM43.279,4.622,39.539.881a3,3,0,0,0-4.231,0L32.594,3.594a.75.75,0,0,0,0,1.058l6.914,6.914a.75.75,0,0,0,1.058,0l2.714-2.714a3,3,0,0,0,0-4.231ZM29.436,26.537v7.8H4.906V9.811H22.521a.943.943,0,0,0,.652-.268l3.066-3.066a.92.92,0,0,0-.652-1.571H3.679A3.68,3.68,0,0,0,0,8.585V35.567a3.68,3.68,0,0,0,3.679,3.679H30.662a3.68,3.68,0,0,0,3.679-3.679v-12.1a.922.922,0,0,0-1.571-.652L29.7,25.886A.943.943,0,0,0,29.436,26.537Z" transform="translate(0 -0.007)" fill="#fff"/>
</svg>
