<svg id="btn_send" xmlns="http://www.w3.org/2000/svg" width="35.839" height="35.839" viewBox="0 0 35.839 35.839">
  <path id="패스_20" data-name="패스 20" d="M17.919,0A17.919,17.919,0,1,1,0,17.919,17.919,17.919,0,0,1,17.919,0Z" fill="#00a388"/>
  <path id="icn_send" d="M16.06,5.735.488.032A.286.286,0,0,0,.15.069.463.463,0,0,0,0,.37V4.384A1.126,1.126,0,0,0,.863,5.473l2.7.638-2.7.638A1.054,1.054,0,0,0,0,7.8v4.015a.463.463,0,0,0,.15.3.533.533,0,0,0,.225.075.138.138,0,0,0,.113-.038L16.06,6.411a.36.36,0,0,0,.263-.338A.4.4,0,0,0,16.06,5.735Z" transform="translate(11 12.009)" fill="#fff"/>
</svg>
